IKResults
version=1
nRows=8
nColumns=40
inDegrees=yes

Units are S.I. units (second, meters, Newtons, ...)
Angles are in degrees.

endheader
time	pelvis_tilt	pelvis_list	pelvis_rotation	pelvis_tx	pelvis_ty	pelvis_tz	hip_flexion_r	hip_adduction_r	hip_rotation_r	knee_angle_r	knee_angle_r_beta	ankle_angle_r	subtalar_angle_r	mtp_angle_r	hip_flexion_l	hip_adduction_l	hip_rotation_l	knee_angle_l	knee_angle_l_beta	ankle_angle_l	subtalar_angle_l	mtp_angle_l	lumbar_extension	lumbar_bending	lumbar_rotation	arm_flex_r	arm_add_r	arm_rot_r	elbow_flex_r	pro_sup_r	wrist_flex_r	wrist_dev_r	arm_flex_l	arm_add_l	arm_rot_l	elbow_flex_l	pro_sup_l	wrist_flex_l	wrist_dev_l
      1.44000000	     20.09973265	      1.74747949	     -2.12970110	      0.35178276	      0.95503345	      1.44557588	     -9.75402055	     -6.27307807	     -7.21720664	    -58.59032416	     -1.02259407	      1.06497025	    -16.84804259	     15.74390718	    -17.36343477	     -4.81554660	      9.82766256	    -15.36822105	     -0.26822606	     11.40692860	      3.13226494	     -7.10440114	    -25.45989839	     -4.14299141	      1.25627738	     -5.29371411	    -11.18541746	      2.88269190	     25.69700459	     89.95437384	      0.00000000	      0.00000000	      1.15592324	      9.47846334	      7.80297596	     21.13502832	     89.95437384	      0.00000000	      0.00000000
      1.45000000	     19.92431586	      1.52567113	     -1.79559604	      0.36189416	      0.95508244	      1.44468897	     -8.42345383	     -5.97333618	     -7.26583643	    -57.94661135	     -1.01135916	      2.32527564	    -16.79745160	     15.41646896	    -17.97176064	     -4.55067512	      9.65546173	    -15.15299270	     -0.26446961	     11.71164357	      2.98604170	     -7.04694073	    -25.31165934	     -3.66384487	      0.85026511	     -5.64943292	    -11.08091855	      2.97133064	     25.00916232	     89.95437384	      0.00000000	      0.00000000	      2.17486196	      9.53100874	      7.85977697	     22.09841123	     89.95437384	      0.00000000	      0.00000000
      1.46000000	     20.01976341	      1.08457927	     -1.08766732	      0.37232817	      0.95548025	      1.44363413	     -7.75813593	     -5.21663311	     -7.39026804	    -56.71716174	     -0.98990121	      3.53448500	    -16.54020056	     15.27622781	    -18.99167102	     -3.96408933	      8.58764459	    -14.78867931	     -0.25811115	     12.08306493	      2.92604838	     -7.06282260	    -25.42564271	     -2.86264684	      0.04592126	     -5.82734545	    -10.88315698	      3.19974220	     24.07562787	     89.95437384	      0.00000000	      0.00000000	      2.83646517	      9.64488922	      8.08150040	     23.60078120	     89.95437384	      0.00000000	      0.00000000
      1.47000000	     19.91640023	      0.85839951	     -0.71445021	      0.38249066	      0.95529389	      1.44280489	     -6.66407128	     -4.89579377	     -7.50907251	    -55.61888772	     -0.97073272	      4.23963097	    -16.44884293	     15.13642771	    -19.65312965	     -3.68018175	      8.19272664	    -14.62040837	     -0.25517426	     12.47285603	      2.95497806	     -7.04769485	    -25.31845579	     -2.38521763	     -0.38713641	     -6.21353737	    -10.80632874	      3.36125371	     23.54009529	     89.95437384	      0.00000000	      0.00000000	      3.74173386	      9.75652218	      8.04892716	     24.77759556	     89.95437384	      0.00000000	      0.00000000
      1.48000000	     19.90685028	      0.55687901	     -0.20654241	      0.39259813	      0.95514099	      1.44196895	     -5.78529232	     -4.48859077	     -7.84947996	    -54.24714093	     -0.94679122	      4.74667621	    -16.47212157	     15.17696058	    -20.39378362	     -3.26779197	      7.57686237	    -14.46240291	     -0.25241655	     12.86163093	      3.29802019	     -7.08157304	    -25.33828205	     -1.79282859	     -0.95150939	     -6.57703003	    -10.73588602	      3.42684526	     23.14489515	     89.95437384	      0.00000000	      0.00000000	      4.55510662	      9.90889452	      8.03584362	     26.13926162	     89.95437384	      0.00000000	      0.00000000
      1.49000000	     19.74615484	      0.36849695	      0.24912370	      0.40259073	      0.95448577	      1.44106073	     -4.72308646	     -4.23239367	     -8.15728976	    -52.84557897	     -0.92232935	      5.27919224	    -16.55129667	     15.19810312	    -20.85549774	     -2.98512121	      7.02183979	    -14.52011641	     -0.25342384	     13.27086692	      3.58413640	     -7.06677015	    -25.18799988	     -1.32289810	     -1.46747613	     -6.96068409	    -10.62136512	      3.42456843	     22.72399530	     89.95437384	      0.00000000	      0.00000000	      5.36899185	     10.07353997	      7.85396118	     27.49117475	     89.95437384	      0.00000000	      0.00000000
      1.50000000	     19.38730498	      0.40530431	      0.36843741	      0.41249928	      0.95329419	      1.44029306	     -3.29035586	     -4.43449215	     -8.45114343	    -51.59211028	     -0.90045219	      5.76726921	    -16.43069326	     14.94502462	    -21.01049175	     -3.02180917	      7.10138272	    -14.71971255	     -0.25690745	     13.49126199	      3.58982756	     -6.95597857	    -24.81874808	     -1.18100144	     -1.68972663	     -7.48096789	    -10.63420531	      3.45171804	     22.61061008	     89.95437384	      0.00000000	      0.00000000	      6.33422880	     10.15602388	      7.83511976	     28.58107060	     89.95437384	      0.00000000	      0.00000000
      1.51000000	     19.53018460	     -0.05584677	      1.12923544	      0.42228681	      0.95291356	      1.43944319	     -2.85268115	     -3.77418795	     -9.08401066	    -49.55675725	     -0.86492858	      6.15248485	    -16.62268923	     15.24349693	    -21.73710565	     -2.34642263	      6.04488266	    -14.88722201	     -0.25983104	     14.09718430	      4.38745706	     -6.88409674	    -25.06499127	     -0.35896572	     -2.42499674	     -7.77532937	    -10.50784515	      3.27404552	     22.36640288	     89.95437384	      0.00000000	      0.00000000	      7.01014713	     10.39999476	      7.66242521	     30.25419280	     89.95437384	      0.00000000	      0.00000000
